<?xml version="1.0" encoding="UTF-8" standalone="no"?>
<!-- Generator: Adobe Illustrator 18.0.0, SVG Export Plug-In . SVG Version: 6.00 Build 0)  -->

<svg
   xmlns:dc="http://purl.org/dc/elements/1.1/"
   xmlns:cc="http://creativecommons.org/ns#"
   xmlns:rdf="http://www.w3.org/1999/02/22-rdf-syntax-ns#"
   xmlns:svg="http://www.w3.org/2000/svg"
   xmlns="http://www.w3.org/2000/svg"
   xmlns:sodipodi="http://sodipodi.sourceforge.net/DTD/sodipodi-0.dtd"
   xmlns:inkscape="http://www.inkscape.org/namespaces/inkscape"
   version="1.1"
   x="0px"
   y="0px"
   viewBox="0 0 312.49997 199.05211"
   enable-background="new 0 0 792 612"
   xml:space="preserve"
   id="svg3509"
   inkscape:version="0.91 r13725"
   sodipodi:docname="logos-somenergia-t.svg"
   width="312.49997"
   height="199.05211"><metadata
     id="metadata3642"><rdf:RDF><cc:Work
         rdf:about=""><dc:format>image/svg+xml</dc:format><dc:type
           rdf:resource="http://purl.org/dc/dcmitype/StillImage" /><dc:title></dc:title></cc:Work></rdf:RDF></metadata><defs
     id="defs3640" /><sodipodi:namedview
     pagecolor="#ffffff"
     bordercolor="#666666"
     borderopacity="1"
     objecttolerance="10"
     gridtolerance="10"
     guidetolerance="10"
     inkscape:pageopacity="0"
     inkscape:pageshadow="2"
     inkscape:window-width="1920"
     inkscape:window-height="1047"
     id="namedview3638"
     showgrid="false"
     fit-margin-top="0"
     fit-margin-left="0"
     fit-margin-right="0"
     fit-margin-bottom="0"
     inkscape:zoom="1.9503207"
     inkscape:cx="174.55638"
     inkscape:cy="174.42565"
     inkscape:window-x="0"
     inkscape:window-y="1"
     inkscape:window-maximized="1"
     inkscape:current-layer="Primer_plano" /><g
     id="Fondo"
     transform="translate(-372.9,-149.84789)" /><g
     id="Guías"
     transform="translate(-372.9,-149.84789)" /><g
     id="Primer_plano"
     transform="translate(-372.9,-149.84789)"><path
       d="m 397.3,157.5 c 0,0 18.9,-25.5 130.3,16.6 118.1,44.7 82.1,81.6 80.1,83.7 -2,2.1 -45.3,29.6 -152.8,2.8 C 338.7,231.7 397.3,157.5 397.3,157.5 Z"
       id="path3532"
       inkscape:connector-curvature="0"
       style="clip-rule:evenodd;opacity:0.75;fill:#e6e6e6;fill-rule:evenodd" /><g
       id="g3534"><linearGradient
         id="SVGID_2_"
         gradientUnits="userSpaceOnUse"
         x1="606.08722"
         y1="340.75"
         x2="606.08722"
         y2="213.5137"><stop
           offset="0"
           style="stop-color:#1A1A1A"
           id="stop3537" /><stop
           offset="0.3497"
           style="stop-color:#1A1A1A"
           id="stop3539" /><stop
           offset="1"
           style="stop-color:#666666"
           id="stop3541" /></linearGradient><path
         d="m 607.7,226.3 c 5.4,-4.2 14.5,-4.5 22.9,-3.4 25.2,3.3 46.1,29.9 46.1,53.1 0,35.7 -50.6,43.9 -57.7,38.4 -2.9,18.3 -23.9,25.6 -40.5,25.6 -10.9,0 -19.7,1.6 -26.9,0 -1.3,-90.6 -23.3,-95.3 -13.9,-106.6 10.2,-12.3 24.7,-19.9 40.7,-19.9 10.8,0 24.4,6.4 29.3,12.8 z"
         id="path3543"
         inkscape:connector-curvature="0"
         style="fill:url(#SVGID_2_)" /><g
         id="g3545"><linearGradient
           id="SVGID_3_"
           gradientUnits="userSpaceOnUse"
           x1="577.59167"
           y1="340.75"
           x2="577.59167"
           y2="213.5137"><stop
             offset="0"
             style="stop-color:#1A1A1A"
             id="stop3548" /><stop
             offset="0.3497"
             style="stop-color:#1A1A1A"
             id="stop3550" /><stop
             offset="1"
             style="stop-color:#666666"
             id="stop3552" /></linearGradient><path
           d="m 607.7,226.3 c -4.9,-6.4 -18.5,-12.8 -29.2,-12.8 -16.1,0 -30.5,7.7 -40.7,19.9 -9.4,11.3 12.6,16 13.9,106.6 7.1,1.6 15.9,0 26.9,0 16.5,0 36,-6.6 40.5,-25.6 3.5,-14.9 -7.9,-38.6 -9,-51.4 -2.2,-22.5 -1.1,-21.3 -2.4,-36.7 z"
           id="path3554"
           inkscape:connector-curvature="0"
           style="fill:url(#SVGID_3_)" /><path
           d="m 587.1,339 c 0,0 44.9,-2.6 29.4,-50.2 l -4.7,-16 c 9.6,46.8 -24.7,41.1 -24.7,66.2 z"
           id="path3556"
           inkscape:connector-curvature="0"
           style="clip-rule:evenodd;opacity:0.1;fill-rule:evenodd" /></g></g><radialGradient
       id="SVGID_4_"
       cx="453.33359"
       cy="325.33371"
       r="195.0546"
       gradientUnits="userSpaceOnUse"><stop
         offset="0"
         style="stop-color:#D5E20F"
         id="stop3575" /><stop
         offset="0.6442"
         style="stop-color:#D5E20F;stop-opacity:0"
         id="stop3577" /><stop
         offset="1"
         style="stop-color:#D5E20F;stop-opacity:0"
         id="stop3579" /></radialGradient><path
       d="m 489.6,277.4 0,50.5 c 0,6.5 -1.9,11.7 -5.6,15.4 -3.6,3.7 -8,5.6 -13.2,5.6 -5.2,0 -9.6,-1.9 -13.2,-5.6 -3.6,-3.7 -5.3,-8.9 -5.3,-15.4 l 0,-50.5 c 0,-19.8 -6.9,-29.7 -20.8,-29.7 -14.2,0 -21.3,9.9 -21.3,29.7 l 0,50.5 c 0,6.5 -1.8,11.7 -5.3,15.4 -3.6,3.7 -8,5.6 -13.2,5.6 -5.2,0 -9.7,-1.9 -13.5,-5.6 -3.6,-3.7 -5.3,-8.9 -5.3,-15.4 l 0,-60.1 c 0,-15.5 5.8,-28.8 17.4,-39.9 11.6,-11.2 24.8,-16.8 39.6,-16.8 14.2,0 27.8,5.1 40.7,15.4 11.8,-10.1 24.6,-15.2 38.4,-15.2 16.3,0 30.2,5.7 41.8,17.1 11.6,11.4 17.4,25.3 17.4,41.5 l 0,57.8 c 0,6.5 -1.9,11.7 -5.6,15.4 -3.6,3.7 -7.9,5.6 -13.2,5.6 -5.2,0 -9.6,-1.9 -13.2,-5.6 -3.6,-3.7 -5.3,-8.9 -5.3,-15.4 l 0,-50.5 c 0,-8.2 -0.7,-14 -2.2,-17.4 -3.6,-8 -9.7,-12.1 -18.5,-12.1 -13.8,0.2 -20.6,10.1 -20.6,29.7 z"
       id="path3583"
       inkscape:connector-curvature="0"
       style="clip-rule:evenodd;fill:#8ed300;fill-rule:evenodd" /><linearGradient
       id="SVGID_5_"
       gradientUnits="userSpaceOnUse"
       x1="470.4949"
       y1="211.17821"
       x2="470.4949"
       y2="348.97021"><stop
         offset="0"
         style="stop-color:#D5E20F"
         id="stop3586" /><stop
         offset="0.2515"
         style="stop-color:#D5E20F"
         id="stop3588" /><stop
         offset="1"
         style="stop-color:#D5E20F;stop-opacity:0"
         id="stop3590" /></linearGradient><path
       d="m 489.6,277.4 0,50.5 c 0,6.5 -1.9,11.7 -5.6,15.4 -3.6,3.7 -8,5.6 -13.2,5.6 -5.2,0 -9.6,-1.9 -13.2,-5.6 -3.6,-3.7 -5.3,-8.9 -5.3,-15.4 l 0,-50.5 c 0,-19.8 -6.9,-29.7 -20.8,-29.7 -14.2,0 -21.3,9.9 -21.3,29.7 l 0,50.5 c 0,6.5 -1.8,11.7 -5.3,15.4 -3.6,3.7 -8,5.6 -13.2,5.6 -5.2,0 -9.7,-1.9 -13.5,-5.6 -3.6,-3.7 -5.3,-8.9 -5.3,-15.4 l 0,-60.1 c 0,-15.5 5.8,-28.8 17.4,-39.9 11.6,-11.2 24.8,-16.8 39.6,-16.8 14.2,0 27.8,5.1 40.7,15.4 11.8,-10.1 24.6,-15.2 38.4,-15.2 16.3,0 30.2,5.7 41.8,17.1 11.6,11.4 17.4,25.3 17.4,41.5 l 0,57.8 c 0,6.5 -1.9,11.7 -5.6,15.4 -3.6,3.7 -7.9,5.6 -13.2,5.6 -5.2,0 -9.6,-1.9 -13.2,-5.6 -3.6,-3.7 -5.3,-8.9 -5.3,-15.4 l 0,-50.5 c 0,-8.2 -0.7,-14 -2.2,-17.4 -3.6,-8 -9.7,-12.1 -18.5,-12.1 -13.8,0.2 -20.6,10.1 -20.6,29.7 z"
       id="path3592"
       inkscape:connector-curvature="0"
       style="clip-rule:evenodd;fill:url(#SVGID_5_);fill-rule:evenodd" /><radialGradient
       id="SVGID_6_"
       cx="360.91779"
       cy="283.08499"
       r="137.89709"
       gradientUnits="userSpaceOnUse"><stop
         offset="0"
         style="stop-color:#D5E20F;stop-opacity:0.8"
         id="stop3597" /><stop
         offset="0.135"
         style="stop-color:#D5E20F;stop-opacity:0.8"
         id="stop3599" /><stop
         offset="0.6748"
         style="stop-color:#D5E20F;stop-opacity:0"
         id="stop3601" /><stop
         offset="1"
         style="stop-color:#D5E20F;stop-opacity:0"
         id="stop3603" /></radialGradient><path
       d="m 411.8,167.8 c 0,0 18.9,-25.5 130.3,16.6 118.1,44.7 82.1,81.6 80.1,83.7 -2,2.1 -45.3,29.6 -152.8,2.8 C 353.1,242 411.8,167.8 411.8,167.8 Z"
       id="path3607"
       inkscape:connector-curvature="0"
       style="clip-rule:evenodd;opacity:0.8;fill:#ffffff;fill-rule:evenodd" /><path
       d="m 642.1,255.6 c -9.7,-11.2 -11.1,-21.9 -4.3,-27.8 6.8,-5.9 17.4,-2.9 27.1,8.2 9.7,11.2 10.2,26.1 2.4,30.5 -7.4,4.3 -15.5,0.3 -25.2,-10.9 z"
       id="path3609"
       inkscape:connector-curvature="0"
       style="clip-rule:evenodd;fill:#4d4d4d;fill-rule:evenodd" /><radialGradient
       id="SVGID_7_"
       cx="663.78833"
       cy="236.9447"
       r="20.632401"
       gradientUnits="userSpaceOnUse"><stop
         offset="0"
         style="stop-color:#B3B3B3"
         id="stop3612" /><stop
         offset="1"
         style="stop-color:#4D4D4D"
         id="stop3614" /></radialGradient><path
       d="m 644,254.6 c -9.7,-11.2 -11.1,-21.9 -4.3,-27.8 6.8,-5.9 17.4,-2.9 27.1,8.2 9.7,11.2 10.2,26.1 2.4,30.5 -7.5,4.3 -15.5,0.3 -25.2,-10.9 z"
       id="path3616"
       inkscape:connector-curvature="0"
       style="clip-rule:evenodd;fill:url(#SVGID_7_);fill-rule:evenodd" /><g
       id="g3618"><path
         stroke-miterlimit="3.8637"
         d="m 630.2,222.9 c 0,0 6.1,-46.4 51.2,-35.6"
         id="path3620"
         inkscape:connector-curvature="0"
         style="clip-rule:evenodd;fill:none;fill-rule:evenodd;stroke:#666666;stroke-miterlimit:3.86369991" /><path
         stroke-miterlimit="3.8637"
         d="m 630.2,222.9 c 0,0 6.1,-46.4 51.2,-35.6"
         id="path3622"
         inkscape:connector-curvature="0"
         style="clip-rule:evenodd;fill:none;fill-rule:evenodd;stroke:#666666;stroke-width:2.05800009;stroke-miterlimit:3.86369991" /></g><g
       id="g3624"><path
         stroke-miterlimit="3.8637"
         d="m 626.4,226.8 c 0,0 -4.6,-48.4 40.8,-29.6"
         id="path3626"
         inkscape:connector-curvature="0"
         style="clip-rule:evenodd;fill:none;fill-rule:evenodd;stroke:#666666;stroke-width:2.05800009;stroke-miterlimit:3.86369991" /><path
         stroke-miterlimit="3.8637"
         d="m 626.4,226.8 c 0,0 -4.6,-48.4 40.8,-29.6"
         id="path3628"
         inkscape:connector-curvature="0"
         style="clip-rule:evenodd;fill:none;fill-rule:evenodd;stroke:#666666;stroke-width:2.05800009;stroke-miterlimit:3.86369991" /></g><circle
       cx="682.59998"
       cy="187.3"
       r="2.8"
       id="circle3630"
       style="clip-rule:evenodd;fill:#666666;fill-rule:evenodd" /><circle
       cx="668.29999"
       cy="197.2"
       r="3.3"
       id="circle3632"
       style="clip-rule:evenodd;fill:#666666;fill-rule:evenodd" /><path
       d="m 628.8,254.2 c 0.6,10.6 -5.9,17.2 -6.7,18.1 -2,2.1 -45.3,29.6 -152.8,2.8 -59.7,-14.9 -73.3,-41.7 -72.3,-64.2 0.8,38.1 46.9,56.4 98.2,65.7 70.8,12.8 109.1,2.7 126.3,-7.7 6.3,-6.1 7.3,-14.7 7.3,-14.7 z"
       id="path3634"
       inkscape:connector-curvature="0"
       style="clip-rule:evenodd;opacity:0.1;fill-rule:evenodd" /><path
       d="m 650.7,227.2 c 0,0 5,0.5 8.1,5.8 3.1,5.2 -7.6,-0.1 -9.4,-3 -2,-3.3 1.3,-2.8 1.3,-2.8 z"
       id="path3636"
       inkscape:connector-curvature="0"
       style="clip-rule:evenodd;opacity:0.15;fill:#ffffff;fill-rule:evenodd" /></g></svg>